<svg height="512pt" viewBox="0 -58 512.001 512" width="512pt" xmlns="http://www.w3.org/2000/svg"><path d="m486.273438 129.722656h-30.523438c-9.359375 0-18.632812-2.960937-26.8125-8.558594-8.082031-5.53125-17.535156-8.457031-27.335938-8.457031h-291.207031c-9.796875 0-19.25 2.925781-27.332031 8.457031-8.179688 5.597657-17.453125 8.558594-26.8125 8.558594h-30.523438c-14.1875 0-25.726562 11.539063-25.726562 25.722656v215.472657c0 14.183593 11.539062 25.722656 25.726562 25.722656h460.550782c14.183594 0 25.722656-11.539063 25.722656-25.722656v-215.472657c0-14.183593-11.539062-25.722656-25.726562-25.722656zm0 0" fill="#e5e2e6"/><path d="m512 370.917969v-215.472657c0-14.183593-11.539062-25.722656-25.726562-25.722656h-21.773438v221.195313c0 10.0625-8.160156 18.222656-18.226562 18.222656h-446.273438v1.777344c0 14.183593 11.539062 25.726562 25.726562 25.726562h460.550782c14.183594-.003906 25.722656-11.542969 25.722656-25.726562zm0 0" fill="#d6d1d7"/><path d="m39.425781 347.101562v-167.839843c0-5.582031 4.527344-10.113281 10.113281-10.113281h412.921876c5.585937 0 10.113281 4.53125 10.113281 10.113281v167.839843c0 5.585938-4.527344 10.113282-10.113281 10.113282h-412.921876c-5.585937 0-10.113281-4.527344-10.113281-10.113282zm0 0" fill="#6990d7"/><path d="m462.460938 169.148438h-29.886719v120.359374c0 26.347657-21.359375 47.707032-47.707031 47.707032h-345.441407v9.886718c0 5.585938 4.527344 10.113282 10.113281 10.113282h412.921876c5.585937 0 10.113281-4.527344 10.113281-10.113282v-167.839843c0-5.585938-4.527344-10.113281-10.113281-10.113281zm0 0" fill="#4172cc"/><g fill="#ffe565"><path d="m124.53125 196.816406h-41.390625c-10.332031 0-18.738281 8.40625-18.738281 18.734375v41.394531c0 10.332032 8.40625 18.738282 18.738281 18.738282h35.128906v28.863281h-41.367187c-6.902344 0-12.5 5.597656-12.5 12.5s5.597656 12.5 12.5 12.5h47.628906c10.332031 0 18.738281-8.40625 18.738281-18.734375v-95.261719c0-10.328125-8.40625-18.734375-18.738281-18.734375zm-6.261719 53.867188h-28.867187v-28.867188h28.867187zm0 0"/><path d="m225.644531 196.816406h-41.394531c-10.332031 0-18.738281 8.40625-18.738281 18.734375v41.394531c0 10.332032 8.40625 18.738282 18.738281 18.738282h35.128906v28.863281h-41.367187c-6.902344 0-12.5 5.597656-12.5 12.5s5.597656 12.5 12.5 12.5h47.632812c10.328125 0 18.734375-8.40625 18.734375-18.734375v-95.261719c0-10.328125-8.40625-18.734375-18.734375-18.734375zm-6.265625 53.867188h-28.867187v-28.867188h28.867187zm0 0"/><path d="m326.753906 196.816406h-41.398437c-10.328125 0-18.734375 8.40625-18.734375 18.734375v41.394531c0 10.332032 8.40625 18.738282 18.734375 18.738282h35.132812v28.863281h-41.367187c-6.902344 0-12.5 5.597656-12.5 12.5s5.597656 12.5 12.5 12.5h47.632812c10.328125 0 18.734375-8.40625 18.734375-18.734375v-95.261719c0-10.328125-8.40625-18.734375-18.734375-18.734375zm-6.265625 53.867188h-28.867187v-28.867188h28.867187zm0 0"/><path d="m428.859375 196.816406h-41.394531c-10.328125 0-18.734375 8.40625-18.734375 18.734375v41.394531c0 10.332032 8.40625 18.738282 18.734375 18.738282h35.132812v28.863281h-41.367187c-6.902344 0-12.5 5.597656-12.5 12.5s5.597656 12.5 12.5 12.5h47.628906c10.332031 0 18.738281-8.40625 18.738281-18.734375v-95.261719c0-10.328125-8.40625-18.734375-18.738281-18.734375zm-6.261719 53.867188h-28.867187v-28.867188h28.867187zm0 0"/></g><path d="m432.574219 197.1875v92.320312c0 16.777344-8.664063 31.535157-21.761719 40.039063h18.050781c10.328125 0 18.734375-8.40625 18.734375-18.734375v-95.261719c0-9.058593-6.464844-16.636719-15.023437-18.363281zm0 0" fill="#ffd508"/><path d="m179.109375 101.902344 25.582031-18.585938c.332032-.246094.632813-.507812.902344-.78125l-4.59375-11.253906h-31.839844c-2.882812 0-5.4375-1.855469-6.328125-4.597656l-9.769531-30.074219c-1.992188-6.128906-10.664062-6.128906-12.652344 0l-9.773437 30.074219c-.890625 2.742187-3.445313 4.597656-6.324219 4.597656h-31.621094c-6.445312 0-9.125 8.246094-3.910156 12.035156l25.578125 18.585938c2.332031 1.691406 3.308594 4.695312 2.417969 7.4375l-9.769532 30.070312c-1.992187 6.128906 5.023438 11.226563 10.234376 7.441406l25.582031-18.585937c2.332031-1.695313 5.488281-1.695313 7.820312 0l25.582031 18.585937c5.214844 3.785157 12.226563-1.3125 10.238282-7.441406l-9.773438-30.070312c-.890625-2.742188.085938-5.746094 2.417969-7.4375zm0 0" fill="#ffd508"/><path d="m419.308594 71.28125h-31.617188c-2.882812 0-5.4375-1.855469-6.328125-4.597656l-9.769531-30.074219c-1.992188-6.128906-10.664062-6.128906-12.65625 0l-9.769531 30.074219c-.890625 2.742187-3.445313 4.597656-6.328125 4.597656h-31.582032l-4.851562 11.253906c.269531.277344.570312.539063.902344.78125l25.582031 18.585938c2.332031 1.695312 3.308594 4.695312 2.417969 7.4375l-9.773438 30.074218c-1.988281 6.128907 5.023438 11.222657 10.238282 7.4375l25.582031-18.585937c2.332031-1.695313 5.488281-1.695313 7.820312 0l25.582031 18.585937c5.210938 3.789063 12.226563-1.308593 10.234376-7.4375l-9.769532-30.074218c-.890625-2.742188.085938-5.742188 2.417969-7.4375l25.578125-18.585938c5.214844-3.789062 2.535156-12.035156-3.910156-12.035156zm0 0" fill="#ffd508"/><path d="m264.070312 5.863281 12.464844 38.363281c1.136719 3.496094 4.394532 5.863282 8.070313 5.863282h40.339843c8.21875 0 11.636719 10.519531 4.988282 15.351562l-32.632813 23.710938c-2.976562 2.160156-4.222656 5.992187-3.085937 9.488281l12.464844 38.363281c2.542968 7.816406-6.40625 14.320313-13.058594 9.488282l-32.632813-23.710938c-2.972656-2.160156-7-2.160156-9.976562 0l-32.632813 23.710938c-6.648437 4.832031-15.597656-1.667969-13.058594-9.488282l12.464844-38.363281c1.136719-3.496094-.105468-7.328125-3.082031-9.488281l-32.632813-23.710938c-6.652343-4.832031-3.234374-15.351562 4.988282-15.351562h40.335937c3.675781 0 6.933594-2.367188 8.070313-5.863282l12.464844-38.363281c2.539062-7.816406 13.601562-7.816406 16.140624 0zm0 0" fill="#ffe565"/></svg>